<?xml version="1.0" encoding="iso-8859-1"?>
<!-- Generator: Adobe Illustrator 16.0.0, SVG Export Plug-In . SVG Version: 6.00 Build 0)  -->
<!DOCTYPE svg PUBLIC "-//W3C//DTD SVG 1.1//EN" "http://www.w3.org/Graphics/SVG/1.1/DTD/svg11.dtd">
<svg version="1.1" id="Capa_1" xmlns="http://www.w3.org/2000/svg" xmlns:xlink="http://www.w3.org/1999/xlink" x="0px" y="0px"
	 width="227.758px" height="227.758px" viewBox="0 0 227.758 227.758" style="enable-background:new 0 0 227.758 227.758;"
	 xml:space="preserve">
<g>
	<path d="M199.542,227.758c-28.525-5.739-61.572-9.043-96.842-9.043c-35.267,0-68.313,3.304-96.842,9.043
		c17.129-18.749,48.276-31.978,84.736-34.418v-74.038L50.062,92.136l13.486-20.108l51.264,34.368v14.603l20.48-21.527l17.543,16.687
		l-38.029,39.969v37.22C151.263,195.781,182.408,209.021,199.542,227.758z M220.301,74.806
		c-7.453-20.608-27.113-34.359-48.557-34.912C148.308,5.599,104.565-8.829,64.89,5.502c-23.058,8.343-41.485,25.162-51.894,47.369
		C2.59,75.072,1.452,99.998,9.795,123.043c8.334,23.058,25.147,41.481,47.336,51.885l10.285-21.917
		c-16.344-7.666-28.721-21.231-34.859-38.207c-6.144-16.967-5.302-35.32,2.355-51.667c7.663-16.349,21.231-28.732,38.204-34.871
		c30.976-11.198,65.296,1.434,81.598,30.039l4.025,7.058l8.057-1.046c13.246-1.744,26.173,6.139,30.724,18.714
		c2.618,7.223,2.258,15.028-1.005,21.979c-3.263,6.951-9.031,12.211-16.254,14.83c-4.605,1.667-9.393,2.141-14.204,1.378
		l-3.747,23.921c8.771,1.383,17.82,0.502,26.185-2.524c13.305-4.812,23.938-14.511,29.943-27.331
		C224.462,102.498,225.113,88.117,220.301,74.806z"/>
</g>
<g>
</g>
<g>
</g>
<g>
</g>
<g>
</g>
<g>
</g>
<g>
</g>
<g>
</g>
<g>
</g>
<g>
</g>
<g>
</g>
<g>
</g>
<g>
</g>
<g>
</g>
<g>
</g>
<g>
</g>
</svg>
